<svg width="64" height="65" viewBox="0 0 64 65" fill="none" xmlns="http://www.w3.org/2000/svg">
<g clip-path="url(#clip0_5_38215)">
<path d="M53.702 0.34668C57.3964 0.34668 60.3761 3.33427 60.5522 6.85001V63.4092L53.5181 57.4367L49.6555 53.9209L45.4408 50.2476L47.2013 56.0414H10.315C6.63109 56.0414 3.64087 53.243 3.64087 49.5355V6.86314C3.64087 3.34741 6.63634 0.354563 10.3281 0.354563H53.6836L53.702 0.34668ZM37.6263 15.2794H37.5475L37.0167 15.8049C42.4638 17.3815 45.0992 19.8435 45.0992 19.8435C41.5888 18.0883 38.4251 17.2107 35.2615 16.8559C32.9755 16.5012 30.6894 16.6878 28.7582 16.8559H28.2326C26.9977 16.8559 24.3701 17.3815 20.8491 18.7872C19.622 19.3206 18.9178 19.6701 18.9178 19.6701C18.9178 19.6701 21.5506 17.0372 27.3524 15.6315L26.9977 15.2767C26.9977 15.2767 22.6043 15.1086 17.8615 18.6138C17.8615 18.6138 13.1186 26.875 13.1186 37.0596C13.1186 37.0596 15.7463 41.6316 22.9538 41.8051C22.9538 41.8051 24.0048 40.4045 25.069 39.1722C21.0225 37.9425 19.4459 35.483 19.4459 35.483C19.4459 35.483 19.798 35.6565 20.3262 36.0086H20.4838C20.5627 36.0086 20.5994 36.048 20.6415 36.0874V36.1031C20.6835 36.1452 20.7203 36.182 20.7991 36.182C21.6662 36.5393 22.5334 36.8914 23.2428 37.233C24.7601 37.8825 26.3471 38.3551 27.9725 38.6414C30.4162 38.9961 33.2172 39.1669 36.4071 38.6414C37.9837 38.2867 39.5602 37.9398 41.1368 37.2356C42.1616 36.7101 43.4228 36.1846 44.8076 35.2991C44.8076 35.2991 43.231 37.7585 39.0137 38.9883C39.8808 40.2127 41.1027 41.6159 41.1027 41.6159C48.3128 41.4582 51.1138 36.8862 51.2715 37.0806C51.2715 26.9118 46.5024 18.6348 46.5024 18.6348C42.2062 15.4449 38.186 15.324 37.4766 15.324L37.6237 15.2715L37.6263 15.2794ZM38.0678 26.875C39.915 26.875 41.4048 28.4516 41.4048 30.3828C41.4048 32.3273 39.9071 33.9038 38.0678 33.9038C36.2284 33.9038 34.7307 32.3273 34.7307 30.3986C34.736 28.4542 36.2363 26.8829 38.0678 26.8829V26.875ZM26.1306 26.875C27.9699 26.875 29.4571 28.4516 29.4571 30.3828C29.4571 32.3273 27.9594 33.9038 26.12 33.9038C24.2807 33.9038 22.783 32.3273 22.783 30.3986C22.783 28.4542 24.2807 26.8829 26.12 26.8829L26.1306 26.875Z" fill="#FF2273"/>
</g>
<defs>
<clipPath id="clip0_5_38215">
<rect width="64" height="64" fill="white" transform="translate(0 0.0566406)"/>
</clipPath>
</defs>
</svg>
