<svg width="29" height="28" viewBox="0 0 36 32" fill="none" xmlns="http://www.w3.org/2000/svg">
<mask id="mask0_150_17687" style="mask-type:alpha" maskUnits="userSpaceOnUse" x="1" y="-1" width="28" height="29">
<rect x="1.01587" y="-0.0351562" width="27.7106" height="20" fill="#D9D9D9"/>
</mask>
<g mask="url(#mask0_150_17687)">
<path d="M13.7167 19.593H9.09825C7.50104 19.593 6.13956 19.0301 5.01381 17.9044C3.88807 16.7786 3.3252 15.4171 3.3252 13.8199C3.3252 12.2227 3.88807 10.8612 5.01381 9.73549C6.13956 8.60975 7.50104 8.04688 9.09825 8.04688H13.7167V10.3561H9.09825C8.13607 10.3561 7.31822 10.6929 6.6447 11.3664C5.97118 12.0399 5.63442 12.8578 5.63442 13.8199C5.63442 14.7821 5.97118 15.5999 6.6447 16.2735C7.31822 16.947 8.13607 17.2838 9.09825 17.2838H13.7167V19.593ZM10.2529 14.9745V12.6653H19.4897V14.9745H10.2529ZM16.0259 19.593V17.2838H20.6443C21.6065 17.2838 22.4244 16.947 23.0979 16.2735C23.7714 15.5999 24.1082 14.7821 24.1082 13.8199C24.1082 12.8578 23.7714 12.0399 23.0979 11.3664C22.4244 10.6929 21.6065 10.3561 20.6443 10.3561H16.0259V8.04688H20.6443C22.2416 8.04688 23.603 8.60975 24.7288 9.73549C25.8545 10.8612 26.4174 12.2227 26.4174 13.8199C26.4174 15.4171 25.8545 16.7786 24.7288 17.9044C23.603 19.0301 22.2416 19.593 20.6443 19.593H16.0259Z" fill="#08090E"/>
</g>
</svg>
